<?xml version="1.0" standalone="no"?>
<!DOCTYPE svg PUBLIC "-//W3C//DTD SVG 20010904//EN"
 "http://www.w3.org/TR/2001/REC-SVG-20010904/DTD/svg10.dtd">
<svg version="1.0" xmlns="http://www.w3.org/2000/svg"
 width="200.000000pt" height="200.000000pt" viewBox="0 0 200.000000 200.000000"
 preserveAspectRatio="xMidYMid meet">

<g transform="translate(0.000000,200.000000) scale(0.100000,-0.100000)"
fill="#000000" stroke="none">
<path d="M1131 1882 c-23 -43 -24 -105 -2 -169 27 -82 27 -96 -8 -136 -46 -52
-115 -84 -200 -92 -134 -12 -184 -49 -197 -146 l-6 -44 -78 0 c-69 0 -81 -3
-104 -24 -17 -16 -26 -35 -26 -56 0 -17 -4 -35 -8 -40 -22 -27 -54 -128 -48
-153 8 -32 8 -35 0 -83 -3 -20 -1 -46 5 -57 7 -14 7 -28 -1 -49 -14 -38 -4
-78 27 -104 19 -18 22 -26 14 -46 -13 -34 -2 -69 30 -96 21 -18 26 -31 26 -71
1 -42 5 -52 33 -77 22 -20 43 -29 66 -29 19 0 39 -7 47 -17 12 -14 68 -43 83
-43 15 0 24 40 16 70 -8 28 -7 31 8 24 9 -4 29 -9 43 -11 39 -7 50 -33 34 -81
-15 -43 -9 -84 20 -128 8 -13 15 -34 15 -47 0 -31 36 -77 60 -77 22 0 42 28
60 83 8 24 18 37 29 37 10 0 29 8 42 19 13 10 38 21 55 25 18 4 39 15 49 26 9
10 32 21 50 24 19 4 48 20 64 36 16 17 36 30 45 30 29 0 66 44 73 85 3 22 17
53 30 68 12 16 23 41 23 57 0 15 7 45 16 66 9 22 14 52 11 70 -3 17 0 49 8 70
8 24 10 48 4 67 -5 18 -4 37 2 49 6 11 8 45 4 81 -3 34 -7 114 -9 177 -2 64
-8 126 -15 138 -27 51 -126 69 -174 32 -14 -11 -31 -20 -37 -20 -7 0 9 15 36
33 137 92 173 262 77 368 -56 62 -164 70 -235 19 l-27 -20 -6 45 c-4 26 -2 58
4 77 9 25 9 35 -3 46 -12 12 -16 12 -25 -6z m241 -165 c25 -16 54 -64 62 -105
29 -158 -150 -302 -377 -302 -71 0 -93 7 -140 46 -16 13 -40 24 -53 24 -32 0
-74 -42 -74 -75 0 -18 -5 -25 -19 -25 -16 0 -18 5 -10 45 16 88 31 101 130
115 40 6 88 13 106 16 43 6 147 78 172 118 12 19 21 50 21 73 0 44 19 68 66
83 33 10 88 4 116 -13z m-465 -401 c15 -12 42 -30 58 -39 l30 -16 -36 6 c-19
3 -51 1 -71 -5 -41 -11 -58 -1 -58 33 0 23 17 45 36 45 7 0 25 -11 41 -24z
m562 -14 c21 -16 22 -27 25 -160 2 -78 6 -145 10 -149 10 -10 7 -52 -5 -74 -7
-14 -7 -30 1 -54 9 -28 8 -40 -5 -66 -11 -21 -15 -43 -11 -65 4 -20 1 -47 -9
-70 -8 -20 -15 -51 -15 -70 0 -24 -6 -36 -22 -45 -32 -17 -37 -28 -31 -64 6
-36 -16 -65 -48 -65 -11 0 -35 -16 -53 -35 -21 -22 -43 -35 -58 -35 -14 0 -37
-11 -52 -25 -15 -14 -39 -25 -53 -25 -14 0 -39 -12 -56 -26 -17 -14 -38 -23
-48 -21 -15 4 -22 -6 -35 -54 -9 -32 -20 -59 -25 -59 -4 0 -11 17 -15 38 -3
20 -15 51 -25 68 -59 97 26 196 133 155 39 -15 100 2 135 37 17 18 39 32 49
32 25 0 95 77 87 96 -3 9 4 28 15 43 15 21 19 38 15 67 -4 30 0 44 16 63 13
15 19 31 15 40 -15 37 -15 63 1 87 16 25 16 28 -1 60 -15 27 -16 38 -8 52 14
22 9 123 -6 153 -7 11 -10 30 -7 40 3 12 -2 23 -13 29 -15 8 -21 6 -30 -10
-12 -22 -68 -28 -86 -10 -6 6 -20 4 -38 -5 -18 -10 -41 -13 -62 -9 -25 5 -38
1 -55 -15 -25 -23 -60 -27 -88 -9 -15 9 -26 8 -54 -5 -45 -22 -49 -21 -81 4
-25 20 -29 20 -65 6 -35 -14 -40 -14 -61 0 -18 13 -32 14 -68 7 -49 -10 -49
-10 -73 -109 -14 -56 -13 -73 6 -92 12 -12 15 -26 12 -50 -5 -26 -1 -39 14
-54 14 -14 19 -31 18 -57 -3 -43 5 -62 26 -62 8 0 22 -12 32 -26 13 -21 14
-30 5 -45 -19 -29 -14 -49 13 -59 43 -16 51 -63 17 -103 -13 -15 -14 -23 -3
-53 17 -47 10 -51 -24 -15 -23 24 -34 28 -60 24 -25 -4 -37 0 -54 18 -24 26
-28 71 -6 89 22 18 19 29 -10 36 -14 3 -34 17 -45 31 -18 23 -18 28 -5 60 20
47 20 47 -15 60 -40 15 -52 61 -22 81 27 18 28 33 2 55 -24 20 -26 59 -5 77 8
7 15 18 15 25 0 7 -7 18 -15 25 -22 18 -18 56 6 74 14 10 19 20 15 34 -4 11 0
24 9 32 9 7 15 29 15 51 0 26 5 41 18 48 26 14 123 12 145 -4 12 -8 32 -11 53
-8 22 4 42 0 59 -11 21 -14 32 -15 59 -6 18 6 52 8 75 4 28 -5 46 -2 58 7 9 8
43 15 77 16 99 4 140 9 163 21 12 7 34 12 48 12 15 0 38 9 52 20 32 25 84 26
112 2z m-744 -191 c3 -6 3 -28 -1 -50 -6 -39 -9 -41 -40 -41 -30 0 -34 3 -34
28 0 50 54 96 75 63z m152 -19 c25 -13 30 -21 23 -32 -5 -8 -10 -26 -10 -39 0
-21 -2 -22 -17 -10 -16 14 -43 69 -43 89 0 14 9 12 47 -8z m451 6 c18 -18 14
-62 -8 -90 -19 -25 -83 -48 -134 -48 -23 0 -26 4 -26 33 0 18 -7 43 -16 55
-15 22 -14 23 28 42 48 22 137 27 156 8z m-529 -38 c5 -17 20 -44 31 -60 l21
-30 -39 0 c-73 0 -118 -61 -88 -121 14 -28 13 -33 -4 -62 l-20 -32 0 44 c0 25
-6 52 -14 60 -7 9 -16 40 -19 70 l-6 54 49 -6 50 -6 0 37 c0 45 9 82 20 82 5
0 13 -14 19 -30z m282 -6 c49 -24 62 -124 15 -109 -11 4 -51 9 -89 12 -61 5
-68 8 -73 29 -9 36 4 74 29 84 26 10 81 3 118 -16z m286 -171 c-3 -2 -16 7
-30 21 -15 14 -34 26 -44 26 -12 1 -6 7 17 19 l34 19 14 -40 c7 -22 11 -42 9
-45z m-477 31 c-14 -35 11 -89 52 -114 l33 -20 -38 0 c-42 0 -102 -27 -131
-59 -18 -20 -20 -20 -38 -5 -36 34 -13 75 50 89 23 5 32 12 32 26 0 17 -6 19
-36 17 -27 -2 -39 2 -50 17 -12 18 -12 24 2 43 12 18 25 22 65 22 28 0 49 5
49 11 0 5 4 8 10 4 6 -4 6 -15 0 -31z m188 -5 c12 -5 22 -12 21 -16 -1 -5 -1
-16 0 -26 1 -19 22 -17 97 10 49 17 103 14 117 -8 5 -9 7 -28 3 -42 -6 -24
-11 -27 -51 -27 -25 0 -45 -2 -45 -4 0 -20 16 -36 37 -36 32 0 63 -17 63 -35
0 -11 -7 -12 -32 -4 -38 10 -122 -2 -166 -25 -28 -14 -30 -14 -51 15 -12 17
-35 38 -51 48 l-28 17 65 -4 c59 -4 65 -3 61 14 -3 15 -15 20 -63 25 -67 6
-97 19 -119 51 -38 54 46 82 142 47z m99 5 c-3 -3 -12 -4 -19 -1 -8 3 -5 6 6
6 11 1 17 -2 13 -5z m183 -139 c0 -8 -4 -15 -10 -15 -5 0 -10 7 -10 15 0 8 5
15 10 15 6 0 10 -7 10 -15z m-352 -54 c12 -11 22 -22 22 -25 0 -3 -23 -6 -50
-6 -63 0 -100 -30 -100 -82 0 -30 -3 -33 -33 -35 -26 -1 -36 4 -48 26 -21 36
-5 68 54 110 51 37 119 42 155 12z m292 -49 c19 -16 21 -22 11 -40 -19 -35
-54 -52 -122 -60 -51 -6 -64 -11 -67 -26 -4 -17 1 -18 59 -13 35 3 72 8 83 12
16 7 17 5 7 -13 -6 -11 -24 -23 -40 -27 -15 -3 -41 -19 -56 -35 -31 -33 -56
-36 -116 -19 -32 10 -46 9 -83 -5 -51 -20 -66 -15 -66 18 0 28 15 42 66 60 50
17 52 41 4 41 -44 0 -60 10 -60 39 0 51 53 57 180 21 64 -18 123 -11 118 14
-3 12 -13 15 -43 13 -31 -3 -37 -1 -28 8 28 30 123 37 153 12z m-423 -140 c10
-7 10 -14 0 -35 -14 -31 -29 -34 -51 -11 -21 20 -20 31 2 43 21 13 33 13 49 3z"/>
</g>
</svg>
